<?xml version="1.0" encoding="utf-8"?>
<!-- Generator: Adobe Illustrator 19.2.1, SVG Export Plug-In . SVG Version: 6.00 Build 0)  -->
<svg version="1.1" id="Capa_1" xmlns="http://www.w3.org/2000/svg" xmlns:xlink="http://www.w3.org/1999/xlink" x="0px" y="0px"
	 viewBox="0 0 257.5 302" style="enable-background:new 0 0 257.5 302;" xml:space="preserve">
<style type="text/css">
	.st0{fill:#96BBBB;}
	.st1{fill:#C9E4CA;}
	.st2{clip-path:url(#SVGID_2_);fill:#C9E4CA;}
	.st3{fill:#0B3954;}
	.st4{font-family:'OpenSans-Light';}
	.st5{font-size:42.6376px;}
	.st6{font-family:'OpenSans-Extrabold';}
	.st7{font-size:13.2089px;}
</style>
<g>
	<g>
		<g>
			<path class="st0" d="M134.7,213.6c-50.8,0-92.1-41.3-92.1-92.1c0-50.8,41.3-92.1,92.1-92.1c50.8,0,92.1,41.3,92.1,92.1
				C226.8,172.3,185.5,213.6,134.7,213.6z"/>
			<path class="st1" d="M134.7,32.4c49.2,0,89.1,39.9,89.1,89.1s-39.9,89.1-89.1,89.1s-89.1-39.9-89.1-89.1S85.5,32.4,134.7,32.4
				 M134.7,26.4c-52.5,0-95.1,42.7-95.1,95.1s42.7,95.1,95.1,95.1s95.1-42.7,95.1-95.1S187.1,26.4,134.7,26.4L134.7,26.4z"/>
		</g>
		<g>
			<defs>
				<circle id="SVGID_1_" cx="134.7" cy="121.5" r="89.1"/>
			</defs>
			<clipPath id="SVGID_2_">
				<use xlink:href="#SVGID_1_"  style="overflow:visible;"/>
			</clipPath>
			<path class="st2" d="M83.8,188.3c0,0,20.6-9.9,23-13.6c0,0,1.6,2,3.6,0c0,0,11.3-6.7,16.8-9.2c0,0,2.8-3.3,5.2-3.3
				c0,0,5,2.8,6.1,0c0,0-0.7-3,1.5-2.8c0,0,2.6,2.1,4.6,1.2c0,0,2-1.1,2.8-2c0,0,0.9,1.5,5.2,1.1c4.4-0.3,18.5-7.5,18.5-7.5
				s2.4-1.6,5.9-1.6s18.9,5.9,18.9,5.9s1.7,0.5,2,2c0.2,1.5,4.6,1.5,4.6,1.5s4.1-0.3,6.3,1.6s5.7,4.9,7.8,5c2.2,0.2,2.4-1.8,3.8-1.8
				c1.4,0,4.3,2.5,4.3,2.5s-2.5,1.9-1.2,2c1.2,0.1,12.3,1.9,12.3,1.9s4.4,2.9,5.2,2.9c0.8,0,9,0.7,12.8,2.2c3.9,1.5,6.5,3.3,6.5,3.3
				l-3.6,7.3l-116.6,46.1l-76-27.4L83.8,188.3z"/>
		</g>
	</g>
	<path class="st3" d="M17.6,144.8c0,0,27.5-0.4,40-2.1s31.6-9.6,31.6-9.6c4.3-1.7,11.8-4.3,13.6-4.7c1.8-0.4,6.1,1.1,7.7,2.1
		c1.6,1.1,0.2,3.6-1.1,7.5c-1.4,3.9,6.4,1.9,6.4,1.9c6.7,0,6.5-10.3,6.5-10.3c0.3-5.4-11.2-5.8-11.2-5.8c0.9-3.4,8.9-9,17-12.8
		c8.2-3.9,25.7-23.8,31.8-28.9c6.1-5.1,27.7-35.1,27.7-35.1l20-30.2c0,0,1.4-3.4,3-2.4c1.6,1.1,0,6.9-3.4,11.3S195,41.4,195,43.7
		s5.5-2.6,12.5-8.1c7-5.6,12.5-15.2,13.7-16.3c1.2-1.1,1.7-2.1,2.4,0c0.7,2.1-1.4,5.6-3.6,9.4S206.8,40.9,205.2,42
		c-1.6,1.1-3.4,3.9,0,3.6c3.4-0.2,24.8-11.4,26.1-12.4c3-2.3,3.7-5.4,6.1-3.2c2.5,2.2-0.2,4.1-3,7.1c-2.7,3-24.9,11.6-24.9,11.6
		c-3,1.3-1.9,3.6,1,4.9c3,1.3,24.1-3.2,24.1-3.2s5.5-2.4,6.4-0.6c0.9,1.7-1.8,3.9-4.1,3.9s-14.5,3.9-20.9,6.9
		c-6.4,3-3.6,3.9-3.6,3.9l4.5,1.3c0,0,5-1.7,3.9,3.6c-1.1,5.4-15,24.8-17.5,27.6c-2.5,2.8-9.1,7.9-14.3,10.9
		c-5.2,3-13.6,7.9-17.7,10.9c-4.1,3-2.5,3.6-0.5,6c2,2.4,13.9,9.6,16.4,10.3c2.5,0.6,7.5,2.8,7.5,5.1c0,2.4-6.1,2.4-12.7,1.9
		c-6.6-0.4-11.1-1.9-17.3-3c-6.1-1.1-9.8,0.6-15,0.4c-5.2-0.2-24.5,6.9-27.4,8.3c-2.9,1.5-11.2,3.6-16.4,3.6c-5.2,0-5,1.7-11.8,1.5
		c-6.8-0.2-7.7,4.1-9.1,6.9c-1.4,2.8-1.6,4.1-4.8,4.1c-3.2,0-3.2-5.4-4.1-6.9s-3.4,4.5-6.4,7.1c-3,2.6-4.3,0-4.3,0s2.3-9.6,1.6-10.5
		c-0.7-0.9-10.7,8.8-14.8,9c-4.1,0.2-1.6-2.1-1.6-2.1s4.8-4.9,8.9-8.6c4.1-3.6,2.7-3.9,2.7-3.9s-2.3,0-15.9,1.9
		c-13.6,1.9-22.7,0.4-27.7-1.7C13.8,146.1,17.6,144.8,17.6,144.8z M97,142.8c1.6,0,5.1-1.4,5.2-2.9c0,0-0.9-4-2.6-3.9
		c-1.7,0.1-2.4-0.8-2.9,0.9c-0.5,1.7-0.9,3.7-1.8,3.9C94,141.1,95.5,142.8,97,142.8z"/>
</g>
<text transform="matrix(1 0 0 1 16.204 260.8847)"><tspan x="0" y="0" class="st3 st4 st5">Piedra</tspan><tspan x="122.5" y="0" class="st3 st6 st5">libre</tspan></text>
<text transform="matrix(1 0 0 1 172.6103 277.8379)"><tspan x="0" y="0" class="st3 st4 st7">Fundació</tspan><tspan x="54.1" y="0" class="st3 st4 st7">n</tspan><tspan x="61.6" y="0" class="st3 st4 st7">.</tspan></text>
</svg>
