<?xml version="1.0" encoding="utf-8"?>
<!-- Generator: Adobe Illustrator 19.2.1, SVG Export Plug-In . SVG Version: 6.00 Build 0)  -->
<svg version="1.1" id="Capa_1" xmlns="http://www.w3.org/2000/svg" xmlns:xlink="http://www.w3.org/1999/xlink" x="0px" y="0px"
	 viewBox="0 0 231.9 186.5" style="enable-background:new 0 0 231.9 186.5;" xml:space="preserve">
<style type="text/css">
	.st0{fill:#96BBBB;}
	.st1{fill:#C9E4CA;}
	.st2{clip-path:url(#SVGID_2_);fill:#C9E4CA;}
	.st3{fill:#0B3954;}
</style>
<g>
	<g>
		<g>
			<path class="st0" d="M110.4,177.9c-44.6,0-81-36.3-81-81c0-44.6,36.3-81,81-81c44.6,0,81,36.3,81,81
				C191.3,141.6,155,177.9,110.4,177.9z"/>
			<path class="st1" d="M110.4,18.7c43.2,0,78.3,35.1,78.3,78.3s-35.1,78.3-78.3,78.3S32,140.2,32,97S67.1,18.7,110.4,18.7
				 M110.4,13.4c-46.1,0-83.6,37.5-83.6,83.6s37.5,83.6,83.6,83.6S194,143.1,194,97S156.5,13.4,110.4,13.4L110.4,13.4z"/>
		</g>
		<g>
			<defs>
				<circle id="SVGID_1_" cx="110.4" cy="97" r="78.3"/>
			</defs>
			<clipPath id="SVGID_2_">
				<use xlink:href="#SVGID_1_"  style="overflow:visible;"/>
			</clipPath>
			<path class="st2" d="M65.6,155.7c0,0,18.1-8.7,20.2-12c0,0,1.4,1.8,3.2,0c0,0,9.9-5.9,14.7-8c0,0,2.5-2.9,4.6-2.9
				c0,0,4.4,2.4,5.4,0c0,0-0.6-2.6,1.3-2.4c0,0,2.3,1.8,4,1.1c0,0,1.7-0.9,2.5-1.8c0,0,0.8,1.3,4.6,1c3.8-0.3,16.3-6.6,16.3-6.6
				s2.1-1.4,5.2-1.4s16.6,5.2,16.6,5.2s1.5,0.4,1.7,1.7s4,1.3,4,1.3s3.6-0.3,5.5,1.4c1.9,1.7,5,4.3,6.9,4.4c1.9,0.2,2.1-1.6,3.4-1.6
				s3.8,2.2,3.8,2.2s-2.2,1.7-1.1,1.8c1.1,0.1,10.8,1.6,10.8,1.6s3.9,2.5,4.6,2.5s7.9,0.6,11.3,1.9c3.4,1.4,5.7,2.9,5.7,2.9
				l-3.2,6.4l-102.4,40.5L48.3,171L65.6,155.7z"/>
		</g>
	</g>
	<path class="st3" d="M7.5,117.4c0,0,24.2-0.4,35.1-1.9c11-1.5,27.7-8.5,27.7-8.5c3.8-1.5,10.4-3.8,12-4.1c1.6-0.4,5.4,0.9,6.8,1.9
		c1.4,0.9,0.2,3.2-1,6.6c-1.2,3.4,5.7,1.7,5.7,1.7c5.9,0,5.8-9,5.8-9c0.2-4.7-9.8-5.1-9.8-5.1c0.8-3,7.8-7.9,15-11.3
		c7.2-3.4,22.6-20.9,27.9-25.4C138,57.8,157,31.5,157,31.5l17.6-26.5c0,0,1.2-3,2.6-2.1c1.4,0.9,0,6-3,10c-3,4-10.8,13.7-10.8,15.8
		s4.8-2.3,11-7.2c6.2-4.9,11-13.4,12.1-14.3c1.1-0.9,1.5-1.9,2.1,0c0.6,1.9-1.2,4.9-3.2,8.3c-2,3.4-11.6,10.7-13,11.7
		c-1.4,0.9-3,3.4,0,3.2c3-0.2,21.8-10,23-10.9c2.6-2,3.2-4.7,5.4-2.8c2.2,2-0.2,3.6-2.6,6.2c-2.4,2.6-21.9,10.2-21.9,10.2
		c-2.7,1.2-1.7,3.2,0.9,4.3c2.6,1.1,21.2-2.8,21.2-2.8s4.8-2.1,5.6-0.6c0.8,1.5-1.6,3.4-3.6,3.4c-2,0-12.8,3.4-18.4,6
		c-5.6,2.6-3.2,3.4-3.2,3.4l4,1.1c0,0,4.4-1.5,3.4,3.2c-1,4.7-13.2,21.8-15.4,24.3c-2.2,2.4-8,7-12.6,9.6c-4.6,2.6-12,7-15.6,9.6
		c-3.6,2.6-2.2,3.2-0.4,5.3c1.8,2.1,12.2,8.5,14.4,9c2.2,0.6,6.6,2.4,6.6,4.5c0,2.1-5.4,2.1-11.2,1.7c-5.8-0.4-9.8-1.7-15.2-2.6
		c-5.4-0.9-8.6,0.6-13.2,0.4c-4.6-0.2-21.6,6-24.1,7.3c-2.6,1.3-9.8,3.2-14.4,3.2c-4.6,0-4.4,1.5-10.4,1.3c-6-0.2-6.8,3.6-8,6
		c-1.2,2.4-1.4,3.6-4.2,3.6c-2.8,0-2.8-4.7-3.6-6c-0.8-1.3-3,4-5.6,6.2c-2.6,2.3-3.8,0-3.8,0s2-8.5,1.4-9.2c-0.6-0.8-9.4,7.7-13,7.9
		c-3.6,0.2-1.4-1.9-1.4-1.9s4.2-4.3,7.8-7.5c3.6-3.2,2.4-3.4,2.4-3.4s-2,0-14,1.7c-12,1.7-20,0.4-24.4-1.5
		C4.1,118.6,7.5,117.4,7.5,117.4z M77.3,115.7c1.4,0,4.5-1.2,4.6-2.5c0,0-0.7-3.5-2.2-3.4s-2.1-0.7-2.6,0.8
		c-0.4,1.5-0.7,3.2-1.6,3.4C74.6,114.2,75.9,115.7,77.3,115.7z"/>
</g>
</svg>
