<?xml version="1.0" encoding="utf-8"?>
<!-- Generator: Adobe Illustrator 19.2.1, SVG Export Plug-In . SVG Version: 6.00 Build 0)  -->
<svg version="1.1" id="Capa_1" xmlns="http://www.w3.org/2000/svg" xmlns:xlink="http://www.w3.org/1999/xlink" x="0px" y="0px"
	 viewBox="0 0 198.8 49" style="enable-background:new 0 0 198.8 49;" xml:space="preserve">
<style type="text/css">
	.st0{fill:#211915;}
</style>
<g>
	<path class="st0" d="M8.8,40.1c-3.2,0-5.5-1.2-6.9-3.6H1.7l0.1,1.6c0,0.9,0.1,2,0.1,3.1V49H0V19.1h1.6l0.4,2.9h0.1
		c1.4-2.2,3.7-3.3,6.8-3.3c2.8,0,4.9,0.9,6.3,2.7c1.5,1.8,2.2,4.5,2.2,8c0,3.4-0.8,6-2.3,7.9C13.5,39.1,11.4,40.1,8.8,40.1z
		 M8.8,38.4c2.1,0,3.7-0.8,4.9-2.3c1.2-1.6,1.7-3.8,1.7-6.6c0-6-2.2-9.1-6.5-9.1c-2.4,0-4.2,0.7-5.3,2c-1.1,1.3-1.7,3.5-1.7,6.4v0.6
		c0,3.2,0.5,5.5,1.6,6.9C4.6,37.7,6.3,38.4,8.8,38.4z"/>
	<path class="st0" d="M22.8,13.4c0-1.2,0.4-1.8,1.2-1.8c0.4,0,0.7,0.2,0.9,0.5c0.2,0.3,0.3,0.8,0.3,1.3c0,0.6-0.1,1-0.3,1.3
		c-0.2,0.3-0.5,0.5-0.9,0.5C23.2,15.3,22.8,14.6,22.8,13.4z M24.9,39.7h-1.9V19.1h1.9V39.7z"/>
	<path class="st0" d="M40.1,40.1c-3,0-5.3-0.9-7-2.8c-1.7-1.8-2.5-4.4-2.5-7.7c0-3.3,0.8-5.9,2.4-7.9c1.6-2,3.8-3,6.5-3
		c2.4,0,4.3,0.8,5.7,2.5c1.4,1.7,2.1,4,2.1,6.9v1.5H32.6c0,2.8,0.7,5,2,6.5c1.3,1.5,3.1,2.2,5.6,2.2c1.2,0,2.2-0.1,3.1-0.2
		c0.9-0.2,2-0.5,3.4-1.1v1.7c-1.2,0.5-2.2,0.8-3.2,1C42.4,40,41.3,40.1,40.1,40.1z M39.6,20.4c-2,0-3.6,0.7-4.8,2s-1.9,3.2-2.1,5.6
		h12.7c0-2.4-0.5-4.2-1.6-5.6C42.8,21.1,41.4,20.4,39.6,20.4z"/>
	<path class="st0" d="M60.6,18.7c1.5,0,2.8,0.3,3.9,0.8c1.1,0.5,2.1,1.5,2.9,2.8h0.1c-0.1-1.6-0.1-3.1-0.1-4.7v-7.4h1.9v29.4H68
		l-0.5-3.1h-0.2c-1.6,2.3-3.8,3.5-6.7,3.5c-2.8,0-5-0.9-6.5-2.6c-1.5-1.8-2.2-4.3-2.2-7.7c0-3.6,0.7-6.3,2.2-8.2
		S57.8,18.7,60.6,18.7z M60.6,20.4c-2.2,0-3.9,0.8-5.1,2.4c-1.1,1.6-1.7,3.9-1.7,6.9c0,5.8,2.3,8.7,6.8,8.7c2.3,0,4-0.7,5.1-2
		c1.1-1.3,1.6-3.6,1.6-6.7v-0.3c0-3.2-0.5-5.5-1.6-6.9S63,20.4,60.6,20.4z"/>
	<path class="st0" d="M84.2,18.7c0.9,0,1.8,0.1,2.8,0.3l-0.4,1.8c-0.9-0.2-1.7-0.3-2.7-0.3c-1.8,0-3.2,0.7-4.3,2.2S78,26.1,78,28.3
		v11.3h-1.9V19.1h1.6l0.2,3.7H78c0.8-1.5,1.7-2.6,2.7-3.2C81.7,19,82.9,18.7,84.2,18.7z"/>
	<path class="st0" d="M103.7,39.7l-0.5-3.3h-0.2c-1,1.3-2.1,2.3-3.2,2.8c-1.1,0.5-2.4,0.8-3.9,0.8c-2,0-3.6-0.5-4.7-1.6
		c-1.1-1-1.7-2.5-1.7-4.3c0-2,0.8-3.6,2.5-4.7c1.7-1.1,4.1-1.7,7.3-1.8l3.9-0.1v-1.4c0-2-0.4-3.4-1.2-4.4c-0.8-1-2.1-1.5-3.8-1.5
		c-1.9,0-3.9,0.5-5.9,1.6l-0.7-1.6c2.3-1.1,4.5-1.6,6.7-1.6c2.3,0,3.9,0.6,5.1,1.8c1.1,1.2,1.7,3,1.7,5.5v13.7H103.7z M96.1,38.4
		c2.2,0,3.9-0.6,5.2-1.9c1.3-1.3,1.9-3,1.9-5.2v-2l-3.6,0.2c-2.9,0.1-4.9,0.6-6.2,1.4c-1.2,0.8-1.8,2-1.8,3.6c0,1.3,0.4,2.3,1.2,3
		S94.7,38.4,96.1,38.4z"/>
	<path class="st0" d="M118.2,39.7h-7.4V10.3h7.4V39.7z"/>
	<path class="st0" d="M123.2,12.9c0-1.1,0.3-1.9,0.9-2.5c0.6-0.5,1.6-0.8,3-0.8c1.4,0,2.4,0.3,3,0.8c0.6,0.6,0.9,1.4,0.9,2.5
		c0,2.2-1.3,3.3-4,3.3C124.5,16.2,123.2,15.1,123.2,12.9z M130.8,39.7h-7.4V18.3h7.4V39.7z"/>
	<path class="st0" d="M149,17.9c2.3,0,4.2,1,5.6,2.9c1.4,2,2.1,4.7,2.1,8.1c0,3.5-0.7,6.2-2.1,8.2c-1.4,2-3.3,3-5.8,3
		c-0.8,0-1.5-0.1-2.1-0.3c-0.6-0.2-1.2-0.4-1.7-0.7s-1-0.8-1.7-1.5h-0.5l-1.2,2.1H136V10.3h7.4v6.7c0,0.8-0.1,2.2-0.3,4.1h0.3
		c0.7-1.1,1.5-1.9,2.5-2.4S147.8,17.9,149,17.9z M146.3,23.7c-1,0-1.8,0.4-2.3,1.1s-0.7,1.8-0.7,3.4v1c0,1.8,0.2,3,0.7,3.8
		s1.3,1.1,2.3,1.1c0.9,0,1.5-0.4,2-1.3c0.5-0.9,0.7-2.2,0.7-3.9C149.1,25.4,148.2,23.7,146.3,23.7z"/>
	<path class="st0" d="M173.8,17.9c0.6,0,1.3,0.1,1.8,0.2l0.4,0.1l-0.7,7c-0.6-0.2-1.4-0.2-2.5-0.2c-1.6,0-2.8,0.4-3.5,1.1
		c-0.7,0.7-1.1,1.8-1.1,3.2v10.5h-7.4V18.3h5.5l1.2,3.4h0.4c0.6-1.1,1.5-2.1,2.6-2.8C171.6,18.2,172.7,17.9,173.8,17.9z"/>
	<path class="st0" d="M189.4,40.1c-3.6,0-6.3-0.9-8.3-2.8c-2-1.9-3-4.6-3-8.1c0-3.6,0.9-6.4,2.7-8.3s4.4-2.9,7.8-2.9
		c3.2,0,5.7,0.8,7.5,2.5c1.8,1.7,2.6,4.1,2.6,7.3V31h-13.2c0,1.2,0.5,2.1,1.3,2.8c0.8,0.7,2,1,3.4,1c1.3,0,2.5-0.1,3.6-0.4
		s2.3-0.7,3.5-1.3v5.3c-1.2,0.6-2.4,1-3.6,1.2C192.6,40,191.1,40.1,189.4,40.1z M188.9,22.9c-0.9,0-1.6,0.3-2.2,0.8
		c-0.6,0.5-0.9,1.4-1,2.6h6.4c0-1-0.3-1.9-0.9-2.5C190.6,23.2,189.9,22.9,188.9,22.9z"/>
</g>
<g>
	<path class="st0" d="M1.4,9.2H0.8V0.6h4.7v0.6H1.4v3.6h3.9v0.6H1.4V9.2z"/>
	<path class="st0" d="M7.2,2.8v4.1c0,0.6,0.1,1.1,0.4,1.4s0.7,0.4,1.3,0.4c0.8,0,1.3-0.2,1.7-0.6s0.5-1,0.5-1.9V2.8h0.6v6.4h-0.5
		L11,8.3h0c-0.4,0.7-1.2,1-2.2,1C7.3,9.3,6.6,8.5,6.6,7V2.8H7.2z"/>
	<path class="st0" d="M18.2,9.2V5.1c0-0.6-0.1-1.1-0.4-1.4s-0.7-0.4-1.3-0.4c-0.8,0-1.3,0.2-1.7,0.6s-0.5,1-0.5,1.9v3.5h-0.6V2.8
		h0.5l0.1,0.9h0c0.4-0.7,1.2-1,2.2-1c1.4,0,2.2,0.8,2.2,2.3v4.2H18.2z"/>
	<path class="st0" d="M23.1,2.7c0.5,0,0.9,0.1,1.2,0.3s0.6,0.5,0.9,0.9h0c0-0.5,0-1,0-1.4V0.1h0.6v9.1h-0.4l-0.1-1h0
		c-0.5,0.7-1.2,1.1-2.1,1.1c-0.9,0-1.6-0.3-2-0.8s-0.7-1.3-0.7-2.4c0-1.1,0.2-1.9,0.7-2.5S22.3,2.7,23.1,2.7z M23.1,3.2
		c-0.7,0-1.2,0.2-1.6,0.7S21,5.2,21,6.1c0,1.8,0.7,2.7,2.1,2.7c0.7,0,1.2-0.2,1.6-0.6s0.5-1.1,0.5-2.1V6c0-1-0.2-1.7-0.5-2.1
		S23.9,3.2,23.1,3.2z"/>
	<path class="st0" d="M31.8,9.2l-0.1-1h0c-0.3,0.4-0.6,0.7-1,0.9s-0.7,0.3-1.2,0.3c-0.6,0-1.1-0.2-1.5-0.5s-0.5-0.8-0.5-1.3
		c0-0.6,0.3-1.1,0.8-1.4s1.3-0.5,2.2-0.5l1.2,0V5.1c0-0.6-0.1-1.1-0.4-1.4s-0.6-0.5-1.2-0.5c-0.6,0-1.2,0.2-1.8,0.5l-0.2-0.5
		c0.7-0.3,1.4-0.5,2.1-0.5c0.7,0,1.2,0.2,1.6,0.5s0.5,0.9,0.5,1.7v4.2H31.8z M29.5,8.8c0.7,0,1.2-0.2,1.6-0.6s0.6-0.9,0.6-1.6V6
		l-1.1,0c-0.9,0-1.5,0.2-1.9,0.4S28.1,7,28.1,7.5c0,0.4,0.1,0.7,0.4,0.9S29,8.8,29.5,8.8z"/>
	<path class="st0" d="M36.8,9.3c-0.9,0-1.6-0.3-2.1-0.9S33.9,7.1,33.9,6c0-1.1,0.3-1.9,0.8-2.5s1.3-0.9,2.2-0.9
		c0.6,0,1.1,0.1,1.6,0.3l-0.2,0.5c-0.6-0.2-1-0.3-1.4-0.3c-0.8,0-1.4,0.2-1.8,0.7S34.5,5.1,34.5,6c0,0.9,0.2,1.5,0.6,2
		s1,0.7,1.7,0.7c0.6,0,1.1-0.1,1.6-0.3V9C38,9.2,37.5,9.3,36.8,9.3z"/>
	<path class="st0" d="M39.9,1.1c0-0.4,0.1-0.6,0.4-0.6c0.1,0,0.2,0,0.3,0.1s0.1,0.2,0.1,0.4c0,0.2,0,0.3-0.1,0.4s-0.2,0.2-0.3,0.2
		C40,1.6,39.9,1.4,39.9,1.1z M40.6,9.2H40V2.8h0.6V9.2z"/>
	<path class="st0" d="M48,6c0,1-0.3,1.9-0.8,2.4S46,9.3,45.1,9.3c-0.6,0-1.1-0.1-1.5-0.4s-0.8-0.7-1-1.2S42.3,6.7,42.3,6
		c0-1,0.3-1.8,0.8-2.4s1.2-0.9,2.1-0.9c0.9,0,1.6,0.3,2.1,0.9S48,5,48,6z M43,6c0,0.9,0.2,1.6,0.6,2s0.9,0.7,1.6,0.7
		s1.2-0.2,1.6-0.7s0.6-1.2,0.6-2c0-0.9-0.2-1.6-0.6-2s-0.9-0.7-1.6-0.7S43.9,3.5,43.5,4S43,5.1,43,6z M44.6,1.8
		c0.3-0.3,0.6-0.6,0.8-1S45.9,0.2,46,0h0.8v0.1c-0.1,0.2-0.4,0.5-0.7,0.8s-0.7,0.7-1.1,1L44.6,1.8L44.6,1.8z"/>
	<path class="st0" d="M54.2,9.2V5.1c0-0.6-0.1-1.1-0.4-1.4s-0.7-0.4-1.3-0.4c-0.8,0-1.3,0.2-1.7,0.6s-0.5,1-0.5,1.9v3.5h-0.6V2.8
		h0.5l0.1,0.9h0c0.4-0.7,1.2-1,2.2-1c1.4,0,2.2,0.8,2.2,2.3v4.2H54.2z"/>
</g>
</svg>
