<?xml version="1.0" encoding="utf-8"?>
<!-- Generator: Adobe Illustrator 19.2.1, SVG Export Plug-In . SVG Version: 6.00 Build 0)  -->
<svg version="1.1" id="Capa_1" xmlns="http://www.w3.org/2000/svg" xmlns:xlink="http://www.w3.org/1999/xlink" x="0px" y="0px"
	 viewBox="0 0 287.1 72.1" style="enable-background:new 0 0 287.1 72.1;" xml:space="preserve">
<style type="text/css">
	.st0{fill:#0B3954;}
	.st1{fill:#96BBBB;}
	.st2{fill:#C9E4CA;}
	.st3{clip-path:url(#SVGID_2_);fill:#C9E4CA;}
</style>
<g>
	<g>
		<path class="st0" d="M97.1,54c-3.2,0-5.5-1.2-6.9-3.6h-0.1l0.1,1.6c0,0.9,0.1,2,0.1,3.1v7.8h-1.9V33.1h1.6l0.4,2.9h0.1
			c1.4-2.2,3.7-3.3,6.8-3.3c2.8,0,4.9,0.9,6.3,2.7c1.5,1.8,2.2,4.5,2.2,8c0,3.4-0.8,6-2.3,7.9C101.9,53.1,99.8,54,97.1,54z
			 M97.1,52.3c2.1,0,3.7-0.8,4.9-2.3c1.2-1.6,1.7-3.8,1.7-6.6c0-6-2.2-9.1-6.5-9.1c-2.4,0-4.2,0.7-5.3,2c-1.1,1.3-1.7,3.5-1.7,6.4
			v0.6c0,3.2,0.5,5.5,1.6,6.9C92.9,51.7,94.7,52.3,97.1,52.3z"/>
		<path class="st0" d="M111.1,27.4c0-1.2,0.4-1.8,1.2-1.8c0.4,0,0.7,0.2,0.9,0.5c0.2,0.3,0.3,0.8,0.3,1.3c0,0.6-0.1,1-0.3,1.3
			c-0.2,0.3-0.5,0.5-0.9,0.5C111.5,29.2,111.1,28.6,111.1,27.4z M113.3,53.6h-1.9V33.1h1.9V53.6z"/>
		<path class="st0" d="M128.5,54c-3,0-5.3-0.9-7-2.8c-1.7-1.8-2.5-4.4-2.5-7.7c0-3.3,0.8-5.9,2.4-7.9c1.6-2,3.8-3,6.5-3
			c2.4,0,4.3,0.8,5.7,2.5c1.4,1.7,2.1,4,2.1,6.9v1.5h-14.8c0,2.8,0.7,5,2,6.5c1.3,1.5,3.1,2.2,5.6,2.2c1.2,0,2.2-0.1,3.1-0.2
			c0.9-0.2,2-0.5,3.4-1.1v1.7c-1.2,0.5-2.2,0.8-3.2,1C130.7,53.9,129.6,54,128.5,54z M127.9,34.3c-2,0-3.6,0.7-4.8,2
			s-1.9,3.2-2.1,5.6h12.7c0-2.4-0.5-4.2-1.6-5.6C131.2,35,129.7,34.3,127.9,34.3z"/>
		<path class="st0" d="M148.9,32.7c1.5,0,2.8,0.3,3.9,0.8c1.1,0.5,2.1,1.5,2.9,2.8h0.1c-0.1-1.6-0.1-3.1-0.1-4.7v-7.4h1.9v29.4h-1.2
			l-0.5-3.1h-0.2c-1.6,2.3-3.8,3.5-6.7,3.5c-2.8,0-5-0.9-6.5-2.6c-1.5-1.8-2.2-4.3-2.2-7.7c0-3.6,0.7-6.3,2.2-8.2
			S146.1,32.7,148.9,32.7z M148.9,34.4c-2.2,0-3.9,0.8-5.1,2.4c-1.1,1.6-1.7,3.9-1.7,6.9c0,5.8,2.3,8.7,6.8,8.7c2.3,0,4-0.7,5.1-2
			c1.1-1.3,1.6-3.6,1.6-6.7v-0.3c0-3.2-0.5-5.5-1.6-6.9S151.3,34.4,148.9,34.4z"/>
		<path class="st0" d="M172.6,32.7c0.9,0,1.8,0.1,2.8,0.3l-0.4,1.8c-0.9-0.2-1.7-0.3-2.7-0.3c-1.8,0-3.2,0.7-4.3,2.2
			s-1.7,3.4-1.7,5.6v11.3h-1.9V33.1h1.6l0.2,3.7h0.1c0.8-1.5,1.7-2.6,2.7-3.2C170,33,171.2,32.7,172.6,32.7z"/>
		<path class="st0" d="M192,53.6l-0.5-3.3h-0.2c-1,1.3-2.1,2.3-3.2,2.8c-1.1,0.5-2.4,0.8-3.9,0.8c-2,0-3.6-0.5-4.7-1.6
			c-1.1-1-1.7-2.5-1.7-4.3c0-2,0.8-3.6,2.5-4.7c1.7-1.1,4.1-1.7,7.3-1.8l3.9-0.1v-1.4c0-2-0.4-3.4-1.2-4.4c-0.8-1-2.1-1.5-3.8-1.5
			c-1.9,0-3.9,0.5-5.9,1.6l-0.7-1.6c2.3-1.1,4.5-1.6,6.7-1.6c2.3,0,3.9,0.6,5.1,1.8c1.1,1.2,1.7,3,1.7,5.5v13.7H192z M184.5,52.3
			c2.2,0,3.9-0.6,5.2-1.9c1.3-1.3,1.9-3,1.9-5.2v-2l-3.6,0.2c-2.9,0.1-4.9,0.6-6.2,1.4c-1.2,0.8-1.8,2-1.8,3.6c0,1.3,0.4,2.3,1.2,3
			S183,52.3,184.5,52.3z"/>
		<path class="st0" d="M206.6,53.6h-7.4V24.2h7.4V53.6z"/>
		<path class="st0" d="M211.6,26.9c0-1.1,0.3-1.9,0.9-2.5c0.6-0.5,1.6-0.8,3-0.8c1.4,0,2.4,0.3,3,0.8c0.6,0.6,0.9,1.4,0.9,2.5
			c0,2.2-1.3,3.3-4,3.3C212.9,30.1,211.6,29,211.6,26.9z M219.1,53.6h-7.4V32.2h7.4V53.6z"/>
		<path class="st0" d="M237.4,31.8c2.3,0,4.2,1,5.6,2.9c1.4,2,2.1,4.7,2.1,8.1c0,3.5-0.7,6.2-2.1,8.2c-1.4,2-3.3,3-5.8,3
			c-0.8,0-1.5-0.1-2.1-0.3c-0.6-0.2-1.2-0.4-1.7-0.7s-1-0.8-1.7-1.5h-0.5l-1.2,2.1h-5.8V24.2h7.4v6.7c0,0.8-0.1,2.2-0.3,4.1h0.3
			c0.7-1.1,1.5-1.9,2.5-2.4S236.2,31.8,237.4,31.8z M234.7,37.6c-1,0-1.8,0.4-2.3,1.1s-0.7,1.8-0.7,3.4v1c0,1.8,0.2,3,0.7,3.8
			s1.3,1.1,2.3,1.1c0.9,0,1.5-0.4,2-1.3c0.5-0.9,0.7-2.2,0.7-3.9C237.5,39.4,236.5,37.6,234.7,37.6z"/>
		<path class="st0" d="M262.1,31.8c0.6,0,1.3,0.1,1.8,0.2l0.4,0.1l-0.7,7c-0.6-0.2-1.4-0.2-2.5-0.2c-1.6,0-2.8,0.4-3.5,1.1
			c-0.7,0.7-1.1,1.8-1.1,3.2v10.5h-7.4V32.2h5.5l1.2,3.4h0.4c0.6-1.1,1.5-2.1,2.6-2.8C259.9,32.2,261,31.8,262.1,31.8z"/>
		<path class="st0" d="M277.7,54c-3.6,0-6.3-0.9-8.3-2.8c-2-1.9-3-4.6-3-8.1c0-3.6,0.9-6.4,2.7-8.3s4.4-2.9,7.8-2.9
			c3.2,0,5.7,0.8,7.5,2.5c1.8,1.7,2.6,4.1,2.6,7.3v3.3h-13.2c0,1.2,0.5,2.1,1.3,2.8c0.8,0.7,2,1,3.4,1c1.3,0,2.5-0.1,3.6-0.4
			s2.3-0.7,3.5-1.3v5.3c-1.2,0.6-2.4,1-3.6,1.2C280.9,53.9,279.4,54,277.7,54z M277.3,36.9c-0.9,0-1.6,0.3-2.2,0.8
			c-0.6,0.5-0.9,1.4-1,2.6h6.4c0-1-0.3-1.9-0.9-2.5C279,37.2,278.2,36.9,277.3,36.9z"/>
	</g>
	<g>
		<path class="st0" d="M89.7,23.1h-0.6v-8.6h4.7v0.6h-4.1v3.6h3.9v0.6h-3.9V23.1z"/>
		<path class="st0" d="M95.5,16.8v4.1c0,0.6,0.1,1.1,0.4,1.4s0.7,0.4,1.3,0.4c0.8,0,1.3-0.2,1.7-0.6s0.5-1,0.5-1.9v-3.5h0.6v6.4
			h-0.5l-0.1-0.9h0c-0.4,0.7-1.2,1-2.2,1c-1.4,0-2.2-0.8-2.2-2.3v-4.2H95.5z"/>
		<path class="st0" d="M106.5,23.1V19c0-0.6-0.1-1.1-0.4-1.4s-0.7-0.4-1.3-0.4c-0.8,0-1.3,0.2-1.7,0.6s-0.5,1-0.5,1.9v3.5h-0.6v-6.4
			h0.5l0.1,0.9h0c0.4-0.7,1.2-1,2.2-1c1.4,0,2.2,0.8,2.2,2.3v4.2H106.5z"/>
		<path class="st0" d="M111.5,16.6c0.5,0,0.9,0.1,1.2,0.3s0.6,0.5,0.9,0.9h0c0-0.5,0-1,0-1.4V14h0.6v9.1h-0.4l-0.1-1h0
			c-0.5,0.7-1.2,1.1-2.1,1.1c-0.9,0-1.6-0.3-2-0.8s-0.7-1.3-0.7-2.4c0-1.1,0.2-1.9,0.7-2.5S110.6,16.6,111.5,16.6z M111.5,17.2
			c-0.7,0-1.2,0.2-1.6,0.7s-0.5,1.2-0.5,2.1c0,1.8,0.7,2.7,2.1,2.7c0.7,0,1.2-0.2,1.6-0.6s0.5-1.1,0.5-2.1v-0.1c0-1-0.2-1.7-0.5-2.1
			S112.2,17.2,111.5,17.2z"/>
		<path class="st0" d="M120.2,23.1l-0.1-1h0c-0.3,0.4-0.6,0.7-1,0.9s-0.7,0.3-1.2,0.3c-0.6,0-1.1-0.2-1.5-0.5s-0.5-0.8-0.5-1.3
			c0-0.6,0.3-1.1,0.8-1.4s1.3-0.5,2.2-0.5l1.2,0V19c0-0.6-0.1-1.1-0.4-1.4s-0.6-0.5-1.2-0.5c-0.6,0-1.2,0.2-1.8,0.5l-0.2-0.5
			c0.7-0.3,1.4-0.5,2.1-0.5c0.7,0,1.2,0.2,1.6,0.5s0.5,0.9,0.5,1.7v4.2H120.2z M117.8,22.7c0.7,0,1.2-0.2,1.6-0.6s0.6-0.9,0.6-1.6
			v-0.6l-1.1,0c-0.9,0-1.5,0.2-1.9,0.4s-0.6,0.6-0.6,1.1c0,0.4,0.1,0.7,0.4,0.9S117.4,22.7,117.8,22.7z"/>
		<path class="st0" d="M125.2,23.2c-0.9,0-1.6-0.3-2.1-0.9s-0.8-1.4-0.8-2.4c0-1.1,0.3-1.9,0.8-2.5s1.3-0.9,2.2-0.9
			c0.6,0,1.1,0.1,1.6,0.3l-0.2,0.5c-0.6-0.2-1-0.3-1.4-0.3c-0.8,0-1.4,0.2-1.8,0.7s-0.6,1.2-0.6,2.1c0,0.9,0.2,1.5,0.6,2
			s1,0.7,1.7,0.7c0.6,0,1.1-0.1,1.6-0.3v0.5C126.4,23.1,125.9,23.2,125.2,23.2z"/>
		<path class="st0" d="M128.3,15c0-0.4,0.1-0.6,0.4-0.6c0.1,0,0.2,0,0.3,0.1s0.1,0.2,0.1,0.4c0,0.2,0,0.3-0.1,0.4s-0.2,0.2-0.3,0.2
			C128.4,15.6,128.3,15.4,128.3,15z M128.9,23.1h-0.6v-6.4h0.6V23.1z"/>
		<path class="st0" d="M136.3,19.9c0,1-0.3,1.9-0.8,2.4s-1.2,0.9-2.1,0.9c-0.6,0-1.1-0.1-1.5-0.4s-0.8-0.7-1-1.2s-0.3-1.1-0.3-1.7
			c0-1,0.3-1.8,0.8-2.4s1.2-0.9,2.1-0.9c0.9,0,1.6,0.3,2.1,0.9S136.3,18.9,136.3,19.9z M131.3,19.9c0,0.9,0.2,1.6,0.6,2
			s0.9,0.7,1.6,0.7s1.2-0.2,1.6-0.7s0.6-1.2,0.6-2c0-0.9-0.2-1.6-0.6-2s-0.9-0.7-1.6-0.7s-1.2,0.2-1.6,0.7S131.3,19.1,131.3,19.9z
			 M132.9,15.8c0.3-0.3,0.6-0.6,0.8-1s0.5-0.6,0.6-0.8h0.8V14c-0.1,0.2-0.4,0.5-0.7,0.8s-0.7,0.7-1.1,1L132.9,15.8L132.9,15.8z"/>
		<path class="st0" d="M142.5,23.1V19c0-0.6-0.1-1.1-0.4-1.4s-0.7-0.4-1.3-0.4c-0.8,0-1.3,0.2-1.7,0.6s-0.5,1-0.5,1.9v3.5h-0.6v-6.4
			h0.5l0.1,0.9h0c0.4-0.7,1.2-1,2.2-1c1.4,0,2.2,0.8,2.2,2.3v4.2H142.5z"/>
	</g>
</g>
<g>
	<g>
		<g>
			<path class="st1" d="M45.7,70.3c-17.2,0-31.3-14-31.3-31.3c0-17.2,14-31.3,31.3-31.3C63,7.8,77,21.8,77,39
				C77,56.3,63,70.3,45.7,70.3z"/>
			<path class="st2" d="M45.7,8.8C62.4,8.8,76,22.3,76,39S62.4,69.3,45.7,69.3S15.5,55.7,15.5,39S29,8.8,45.7,8.8 M45.7,6.7
				C27.9,6.7,13.4,21.2,13.4,39s14.5,32.3,32.3,32.3S78,56.8,78,39S63.5,6.7,45.7,6.7L45.7,6.7z"/>
		</g>
		<g>
			<defs>
				<circle id="SVGID_1_" cx="45.7" cy="39" r="30.3"/>
			</defs>
			<clipPath id="SVGID_2_">
				<use xlink:href="#SVGID_1_"  style="overflow:visible;"/>
			</clipPath>
			<path class="st3" d="M28.4,61.7c0,0,7-3.3,7.8-4.6c0,0,0.6,0.7,1.2,0c0,0,3.8-2.3,5.7-3.1c0,0,1-1.1,1.8-1.1c0,0,1.7,0.9,2.1,0
				c0,0-0.2-1,0.5-0.9c0,0,0.9,0.7,1.6,0.4c0,0,0.7-0.4,1-0.7c0,0,0.3,0.5,1.8,0.4c1.5-0.1,6.3-2.5,6.3-2.5s0.8-0.5,2-0.5
				c1.2,0,6.4,2,6.4,2s0.6,0.2,0.7,0.7c0.1,0.5,1.6,0.5,1.6,0.5s1.4-0.1,2.1,0.5c0.7,0.6,1.9,1.7,2.7,1.7c0.7,0.1,0.8-0.6,1.3-0.6
				s1.5,0.9,1.5,0.9s-0.8,0.7-0.4,0.7s4.2,0.6,4.2,0.6s1.5,1,1.8,1c0.3,0,3,0.2,4.4,0.7c1.3,0.5,2.2,1.1,2.2,1.1l-1.2,2.5L47.5,76.9
				l-25.8-9.3L28.4,61.7z"/>
		</g>
	</g>
	<path class="st0" d="M6,46.9c0,0,9.3-0.1,13.6-0.7c4.2-0.6,10.7-3.3,10.7-3.3c1.5-0.6,4-1.5,4.6-1.6c0.6-0.1,2.1,0.4,2.6,0.7
		c0.5,0.4,0.1,1.2-0.4,2.5c-0.5,1.3,2.2,0.7,2.2,0.7c2.3,0,2.2-3.5,2.2-3.5c0.1-1.8-3.8-2-3.8-2c0.3-1.2,3-3.1,5.8-4.4
		c2.8-1.3,8.7-8.1,10.8-9.8c2.1-1.7,9.4-11.9,9.4-11.9l6.8-10.3c0,0,0.5-1.2,1-0.8c0.5,0.4,0,2.3-1.2,3.9c-1.2,1.5-4.2,5.3-4.2,6.1
		s1.9-0.9,4.2-2.8c2.4-1.9,4.2-5.2,4.7-5.5c0.4-0.4,0.6-0.7,0.8,0s-0.5,1.9-1.2,3.2s-4.5,4.1-5,4.5c-0.5,0.4-1.2,1.3,0,1.2
		c1.2-0.1,8.4-3.9,8.9-4.2c1-0.8,1.3-1.8,2.1-1.1c0.9,0.8-0.1,1.4-1,2.4c-0.9,1-8.5,3.9-8.5,3.9c-1,0.4-0.6,1.2,0.4,1.7
		c1,0.4,8.2-1.1,8.2-1.1s1.9-0.8,2.2-0.2c0.3,0.6-0.6,1.3-1.4,1.3s-4.9,1.3-7.1,2.3c-2.2,1-1.2,1.3-1.2,1.3l1.5,0.4
		c0,0,1.7-0.6,1.3,1.2c-0.4,1.8-5.1,8.4-5.9,9.4s-3.1,2.7-4.9,3.7c-1.8,1-4.6,2.7-6,3.7c-1.4,1-0.8,1.2-0.2,2
		c0.7,0.8,4.7,3.3,5.6,3.5c0.8,0.2,2.5,0.9,2.5,1.7c0,0.8-2.1,0.8-4.3,0.7c-2.2-0.1-3.8-0.7-5.9-1c-2.1-0.4-3.3,0.2-5.1,0.1
		c-1.8-0.1-8.3,2.3-9.3,2.8c-1,0.5-3.8,1.2-5.6,1.2c-1.8,0-1.7,0.6-4,0.5c-2.3-0.1-2.6,1.4-3.1,2.3c-0.5,0.9-0.5,1.4-1.6,1.4
		s-1.1-1.8-1.4-2.3c-0.3-0.5-1.2,1.5-2.2,2.4c-1,0.9-1.5,0-1.5,0s0.8-3.3,0.5-3.6c-0.2-0.3-3.6,3-5,3.1c-1.4,0.1-0.5-0.7-0.5-0.7
		s1.6-1.7,3-2.9c1.4-1.2,0.9-1.3,0.9-1.3s-0.8,0-5.4,0.7c-4.6,0.7-7.7,0.1-9.4-0.6C4.7,47.4,6,46.9,6,46.9z M32.9,46.3
		c0.5,0,1.7-0.5,1.8-1c0,0-0.3-1.4-0.9-1.3c-0.6,0-0.8-0.3-1,0.3c-0.2,0.6-0.3,1.2-0.6,1.3C31.9,45.7,32.4,46.3,32.9,46.3z"/>
</g>
</svg>
